<?xml version="1.0" encoding="UTF-8"?>
<svg width="166" height="240" version="1.1" viewBox="0 0 166 240" xmlns="http://www.w3.org/2000/svg"><g fill="#0d0c22"><path d="m148 55.8-0.164-0.0968-0.381-0.116c0.153 0.129 0.345 0.204 0.545 0.213z"/><path d="m151 72.9-0.184 0.052z"/><path d="m148 55.8c-0.024-3e-3 -0.047-0.0085-0.069-0.0164-1e-3 0.0152-1e-3 0.0305 0 0.0457 0.025-0.0032 0.049-0.0134 0.069-0.0293z"/><path d="m148 55.8h0.025v-0.0154z"/><path d="m151 72.9 0.277-0.158 0.104-0.058 0.093-0.1c-0.176 0.076-0.336 0.183-0.474 0.316z"/><path d="m149 56.2-0.271-0.258-0.184-0.1c0.099 0.174 0.263 0.303 0.455 0.358z"/><path d="m80.6 222c-0.217 0.094-0.406 0.24-0.552 0.426l0.171-0.11c0.116-0.106 0.281-0.232 0.381-0.316z"/><path d="m120 215c0-0.245-0.12-0.2-0.09 0.671 0-0.071 0.029-0.142 0.041-0.21 0.017-0.155 0.029-0.306 0.049-0.461z"/><path d="m116 222c-0.216 0.094-0.406 0.24-0.552 0.426l0.171-0.11c0.117-0.106 0.281-0.232 0.381-0.316z"/><path d="m52.7 224c-0.165-0.143-0.366-0.237-0.581-0.271 0.174 0.084 0.349 0.168 0.465 0.232z"/><path d="m46.5 218c-0.025-0.254-0.103-0.5-0.229-0.722 0.089 0.231 0.163 0.468 0.223 0.709z"/></g><path d="m88.6 111c-8.61 3.69-18.4 7.87-31.1 7.87-5.3-0.011-10.6-0.738-15.7-2.16l8.76 90c0.31 3.76 2.02 7.27 4.8 9.82 2.78 2.56 6.41 3.97 10.2 3.97 0 0 12.4 0.645 16.6 0.645 4.46 0 17.8-0.645 17.8-0.645 3.77 0 7.41-1.42 10.2-3.97 2.78-2.56 4.49-6.06 4.8-9.82l9.38-99.4c-4.19-1.43-8.43-2.38-13.2-2.38-8.25-3e-3 -14.9 2.84-22.6 6.13z" fill="#fd0"/><path d="m14.8 72.4 0.148 0.139 0.0968 0.058c-0.0745-0.074-0.157-0.14-0.245-0.197z" fill="#0d0c22"/><path d="m165 64.1-1.32-6.66c-1.18-5.97-3.87-11.6-10-13.8-1.96-0.69-4.19-0.987-5.7-2.42-1.51-1.43-1.95-3.65-2.3-5.71-0.645-3.78-1.25-7.56-1.91-11.3-0.571-3.24-1.02-6.88-2.51-9.86-1.94-3.99-5.95-6.33-9.95-7.88-2.05-0.764-4.14-1.41-6.26-1.94-9.98-2.63-20.5-3.6-30.7-4.15-12.3-0.68-24.7-0.475-37 0.613-9.15 0.832-18.8 1.84-27.5 5-3.18 1.16-6.45 2.55-8.87 5-2.96 3.02-3.93 7.68-1.77 11.4 1.54 2.67 4.15 4.56 6.91 5.81 3.6 1.61 7.36 2.83 11.2 3.65 10.7 2.37 21.9 3.31 32.8 3.7 12.2 0.491 24.4 0.0931 36.5-1.19 2.99-0.329 5.98-0.724 8.96-1.18 3.51-0.539 5.77-5.13 4.73-8.33-1.24-3.83-4.57-5.31-8.33-4.73-0.555 0.0871-1.11 0.168-1.66 0.248l-0.4 0.0581c-1.28 0.161-2.55 0.312-3.83 0.452-2.64 0.284-5.28 0.516-7.92 0.697-5.93 0.413-11.9 0.603-17.8 0.613-5.84 0-11.7-0.164-17.5-0.548-2.66-0.174-5.31-0.396-7.96-0.665-1.2-0.126-2.4-0.258-3.6-0.406l-1.14-0.145-0.249-0.0355-1.18-0.171c-2.42-0.365-4.84-0.784-7.23-1.29-0.241-0.0536-0.457-0.188-0.612-0.381s-0.24-0.433-0.24-0.68c0-0.248 0.085-0.488 0.24-0.68s0.371-0.327 0.612-0.381h0.045c2.08-0.442 4.16-0.82 6.26-1.15 0.699-0.11 1.4-0.217 2.1-0.323h0.019c1.31-0.0871 2.63-0.323 3.94-0.478 11.4-1.18 22.8-1.59 34.2-1.21 5.55 0.161 11.1 0.487 16.6 1.05 1.19 0.123 2.37 0.252 3.55 0.397 0.451 0.0548 0.906 0.119 1.36 0.174l0.916 0.132c2.67 0.398 5.33 0.881 7.97 1.45 3.92 0.852 8.95 1.13 10.7 5.42 0.555 1.36 0.806 2.87 1.11 4.3l0.39 1.82c0.01 0.0327 0.018 0.0661 0.023 0.1 0.922 4.3 1.85 8.6 2.77 12.9 0.068 0.318 0.069 0.646 5e-3 0.964-0.065 0.318-0.195 0.62-0.381 0.886-0.187 0.266-0.426 0.491-0.703 0.66s-0.586 0.28-0.908 0.325h-0.026l-0.565 0.0774-0.558 0.0742c-1.77 0.23-3.54 0.445-5.31 0.645-3.49 0.398-6.99 0.742-10.5 1.03-6.96 0.578-13.9 0.958-20.9 1.14-3.56 0.0946-7.12 0.139-10.7 0.132-14.2-0.0112-28.3-0.834-42.4-2.46-1.52-0.181-3.04-0.374-4.57-0.571 1.18 0.152-0.858-0.116-1.27-0.174-0.968-0.136-1.94-0.276-2.9-0.423-3.25-0.487-6.48-1.09-9.72-1.61-3.92-0.645-7.67-0.323-11.2 1.61-2.91 1.59-5.27 4.03-6.75 7-1.53 3.16-1.98 6.6-2.67 10-0.684 3.4-1.75 7.05-1.35 10.5 0.868 7.53 6.13 13.6 13.7 15 7.12 1.29 14.3 2.34 21.5 3.23 28.2 3.45 56.7 3.87 85 1.23 2.3-0.215 4.6-0.449 6.9-0.703 0.718-0.079 1.44 4e-3 2.12 0.242 0.682 0.238 1.3 0.625 1.81 1.13 0.513 0.508 0.905 1.12 1.15 1.8 0.243 0.679 0.331 1.4 0.257 2.12l-0.716 6.96c-1.44 14.1-2.89 28.1-4.33 42.2-1.5 14.8-3.02 29.5-4.55 44.3-0.43 4.16-0.86 8.32-1.29 12.5-0.413 4.09-0.471 8.32-1.25 12.4-1.23 6.36-5.53 10.3-11.8 11.7-5.76 1.31-11.6 2-17.5 2.05-6.55 0.035-13.1-0.255-19.6-0.22-6.99 0.039-15.5-0.606-20.9-5.81-4.74-4.57-5.4-11.7-6.04-17.9-0.86-8.19-1.71-16.4-2.56-24.6l-4.74-45.5-3.07-29.5c-0.051-0.487-0.103-0.968-0.151-1.46-0.368-3.51-2.86-6.95-6.78-6.77-3.36 0.148-7.17 3-6.78 6.77l2.27 21.8 4.7 45.2c1.34 12.8 2.68 25.7 4.01 38.5 0.258 2.46 0.5 4.92 0.771 7.38 1.47 13.4 11.7 20.7 24.4 22.7 7.42 1.19 15 1.44 22.6 1.56 9.65 0.155 19.4 0.526 28.9-1.22 14.1-2.58 24.6-12 26.1-26.5 0.43-4.21 0.86-8.42 1.29-12.6 1.43-13.9 2.86-27.8 4.28-41.8l4.66-45.5 2.14-20.8c0.107-1.03 0.543-2 1.24-2.77 0.702-0.766 1.63-1.29 2.65-1.48 4.02-0.784 7.87-2.12 10.7-5.18 4.56-4.87 5.46-11.2 3.85-17.6zm-151 4.5c0.0613-0.029-0.0516 0.497-0.1 0.742-0.0096-0.371 0.0097-0.7 0.1-0.742zm0.39 3.02c0.0323-0.023 0.129 0.106 0.229 0.261-0.152-0.142-0.248-0.248-0.232-0.261zm0.384 0.506c0.139 0.236 0.213 0.384 0 0zm0.771 0.626h0.0193c0 0.023 0.0355 0.045 0.0484 0.068-0.0214-0.025-0.0451-0.048-0.0709-0.068zm135-0.935c-1.44 1.37-3.62 2.01-5.78 2.33-24.1 3.58-48.6 5.39-73 4.59-17.5-0.597-34.7-2.54-52-4.98-1.69-0.239-3.53-0.548-4.69-1.8-2.19-2.36-1.12-7.1-0.545-9.94 0.523-2.61 1.52-6.08 4.62-6.45 4.84-0.568 10.5 1.47 15.2 2.2 5.76 0.88 11.6 1.58 17.4 2.11 24.8 2.26 50 1.91 74.7-1.4 4.5-0.604 8.98-1.31 13.4-2.11 3.98-0.713 8.39-2.05 10.8 2.07 1.65 2.81 1.87 6.56 1.61 9.73-0.078 1.38-0.682 2.68-1.69 3.63z" fill="#fff"/></svg>
