<?xml version="1.0" encoding="UTF-8" standalone="no"?>
<svg
   xmlns:dc="http://purl.org/dc/elements/1.1/"
   xmlns:cc="http://creativecommons.org/ns#"
   xmlns:rdf="http://www.w3.org/1999/02/22-rdf-syntax-ns#"
   xmlns:svg="http://www.w3.org/2000/svg"
   xmlns="http://www.w3.org/2000/svg"
   style="fill:none"
   height="239.81247"
   width="165.65788"
   id="svg32"
   version="1.1"
   viewBox="0 0 165.65788 239.81247">
  <metadata
     id="metadata38">
    <rdf:RDF>
      <cc:Work
         rdf:about="">
        <dc:format>image/svg+xml</dc:format>
        <dc:type
           rdf:resource="http://purl.org/dc/dcmitype/StillImage" />
        <dc:title></dc:title>
      </cc:Work>
    </rdf:RDF>
  </metadata>
  <defs
     id="defs36" />
  <path
     style="fill:#0d0c22"
     id="path4"
     d="m 148.33201,55.784711 -0.164,-0.0968 -0.381,-0.1161 c 0.153,0.1293 0.345,0.2042 0.545,0.2129 z" />
  <path
     style="fill:#0d0c22"
     id="path6"
     d="m 150.73101,72.917011 -0.184,0.052 z" />
  <path
     style="fill:#0d0c22"
     id="path8"
     d="m 148.40401,55.758311 c -0.024,-0.003 -0.047,-0.0085 -0.069,-0.0164 -0.001,0.0152 -0.001,0.0305 0,0.0457 0.025,-0.0032 0.049,-0.0134 0.069,-0.0293 z" />
  <path
     style="fill:#0d0c22"
     id="path10"
     d="m 148.33401,55.786911 h 0.025 v -0.0154 z" />
  <path
     style="fill:#0d0c22"
     id="path12"
     d="m 150.58401,72.886011 0.277,-0.158 0.104,-0.058 0.093,-0.1 c -0.176,0.076 -0.336,0.183 -0.474,0.316 z" />
  <path
     style="fill:#0d0c22"
     id="path14"
     d="m 148.81401,56.158911 -0.271,-0.2581 -0.184,-0.1 c 0.099,0.1744 0.263,0.303 0.455,0.3581 z" />
  <path
     style="fill:#0d0c22"
     id="path16"
     d="m 80.628014,222.40901 c -0.217,0.094 -0.406,0.24 -0.552,0.426 l 0.171,-0.11 c 0.116,-0.106 0.281,-0.232 0.381,-0.316 z" />
  <path
     style="fill:#0d0c22"
     id="path18"
     d="m 120.22201,214.61901 c 0,-0.245 -0.12,-0.2 -0.09,0.671 0,-0.071 0.029,-0.142 0.041,-0.21 0.017,-0.155 0.029,-0.306 0.049,-0.461 z" />
  <path
     style="fill:#0d0c22"
     id="path20"
     d="m 116.11601,222.40901 c -0.216,0.094 -0.406,0.24 -0.552,0.426 l 0.171,-0.11 c 0.117,-0.106 0.281,-0.232 0.381,-0.316 z" />
  <path
     style="fill:#0d0c22"
     id="path22"
     d="m 52.745014,224.26101 c -0.165,-0.143 -0.366,-0.237 -0.581,-0.271 0.174,0.084 0.349,0.168 0.465,0.232 z" />
  <path
     style="fill:#0d0c22"
     id="path24"
     d="m 46.469014,218.25201 c -0.025,-0.254 -0.103,-0.5 -0.229,-0.722 0.089,0.231 0.163,0.468 0.223,0.709 z" />
  <path
     style="fill:#ffdd00"
     id="path26"
     d="m 88.617014,110.78201 c -8.614,3.687 -18.389,7.869 -31.059,7.869 -5.3,-0.011 -10.574,-0.738 -15.679,-2.162 l 8.762,89.963 c 0.31,3.76 2.023,7.266 4.799,9.822 2.776,2.555 6.411,3.974 10.184,3.973 0,0 12.424,0.645 16.57,0.645 4.461,0 17.840996,-0.645 17.840996,-0.645 3.772,0 7.406,-1.419 10.181,-3.974 2.775,-2.556 4.488,-6.062 4.798,-9.821 l 9.385,-99.413 c -4.194,-1.432 -8.427,-2.384 -13.199,-2.384 -8.252,-0.003 -14.900996,2.839 -22.582996,6.127 z" />
  <path
     style="fill:#0d0c22"
     id="path28"
     d="m 14.753914,72.400011 0.1484,0.139 0.0968,0.058 c -0.0745,-0.074 -0.1567,-0.14 -0.2452,-0.197 z" />
  <path
     style="fill:#0d0c22"
     id="path30"
     d="m 164.91901,64.096711 -1.32,-6.6557 c -1.184,-5.9717 -3.871,-11.6144 -10.001,-13.7727 -1.965,-0.6904 -4.194,-0.9872 -5.701,-2.4164 -1.506,-1.4292 -1.952,-3.6489 -2.3,-5.7072 -0.645,-3.7779 -1.252,-7.559 -1.913,-11.3304 -0.571,-3.2424 -1.023,-6.8847 -2.51,-9.8593 -1.936,-3.9941 -5.952,-6.3298001 -9.947,-7.8752001 -2.046,-0.764 -4.135,-1.4103 -6.255,-1.9357 -9.979,-2.6326 -20.47,-3.60050005 -30.735996,-4.15210005 -12.322,-0.68 -24.677,-0.4751 -36.969,0.61290005 -9.15,0.8324 -18.787,1.839 -27.4811,5.0039 -3.1778,1.1582 -6.4524,2.5487 -8.8689,5.0038001 -2.9649,3.0165 -3.9327,7.6816 -1.7679,11.4434 1.5389,2.6713 4.1456,4.5586 6.9105,5.8072 3.6013,1.6087 7.3624,2.8328 11.2204,3.652 10.744,2.3745 21.871,3.3069 32.846,3.7037 12.165,0.491 24.35,0.0931 36.456996,-1.1904 2.993,-0.3291 5.982,-0.7238 8.965,-1.1841 3.513,-0.5387 5.769,-5.1329 4.733,-8.3333 -1.239,-3.8262 -4.568,-5.3103 -8.333,-4.7328 -0.555,0.0871 -1.107,0.1678 -1.662,0.2484 l -0.4,0.0581 c -1.275,0.1613 -2.551,0.3119 -3.826,0.4517 -2.635,0.2839 -5.276,0.5161 -7.923996,0.6968 -5.929,0.413 -11.875,0.6033 -17.818,0.613 -5.839,0 -11.682,-0.1645 -17.509,-0.5485 -2.658,-0.1742 -5.31,-0.3957 -7.955,-0.6646 -1.204,-0.1258 -2.404,-0.2581 -3.604,-0.4065 l -1.142,-0.1451 -0.249,-0.0355 -1.184,-0.171 c -2.419,-0.3646 -4.839,-0.784 -7.233,-1.2905 -0.241,-0.0536 -0.457,-0.188 -0.612,-0.381 -0.155,-0.193 -0.24,-0.433 -0.24,-0.6804 0,-0.2475 0.085,-0.4875 0.24,-0.6805 0.155,-0.193 0.371,-0.3274 0.612,-0.3809 h 0.045 c 2.075,-0.442 4.165,-0.8195 6.262,-1.1486 0.699,-0.1097 1.401,-0.2172 2.104,-0.3226 h 0.019 c 1.313,-0.0871 2.633,-0.3226 3.939,-0.4775 11.369,-1.1824 22.804,-1.5856 34.227,-1.2066 5.546,0.1613 11.089,0.4872 16.608996,1.0485 1.187,0.1226 2.368,0.2517 3.549,0.3969 0.451,0.0548 0.906,0.1193 1.361,0.1742 l 0.916,0.1322 c 2.672,0.3979 5.329,0.8808 7.972,1.4486 3.917,0.8517 8.947,1.1292 10.689,5.42 0.555,1.3615 0.806,2.8746 1.113,4.3038 l 0.39,1.8228 c 0.01,0.0327 0.018,0.0661 0.023,0.1 0.922,4.3016 1.846,8.6032 2.771,12.9049 0.068,0.3177 0.069,0.6461 0.005,0.9645 -0.065,0.3184 -0.195,0.6201 -0.381,0.8861 -0.187,0.2661 -0.426,0.4909 -0.703,0.6604 -0.277,0.1695 -0.586,0.2801 -0.908,0.3248 h -0.026 l -0.565,0.0774 -0.558,0.0742 c -1.768,0.2302 -3.538,0.4452 -5.31,0.6453 -3.491,0.3979 -6.987,0.742 -10.489,1.0324 -6.957,0.5785 -13.929,0.9581 -20.914996,1.1388 -3.56,0.0946 -7.118,0.1387 -10.676,0.1323 -14.159,-0.0112 -28.307,-0.8341 -42.373,-2.4648 -1.522,-0.1807 -3.045,-0.3743 -4.568,-0.5711 1.181,0.1517 -0.858,-0.1161 -1.271,-0.1742 -0.968,-0.1355 -1.9358,-0.2764 -2.9036,-0.4226 -3.2488,-0.4872 -6.4783,-1.0873 -9.7206,-1.6131 -3.9199,-0.6453 -7.6687,-0.3226 -11.2143,1.6131 -2.9103997,1.5926 -5.2659997,4.0348 -6.7524997,7.0009 -1.5292,3.1616 -1.9841,6.604 -2.668,10.0012 -0.68399997,3.3972 -1.74859997,7.0525 -1.34539997,10.54 0.8679,7.527 6.12979997,13.644 13.69849967,15.012 7.1203,1.29 14.2792,2.335 21.4579,3.226 28.198,3.453 56.685,3.866 84.970996,1.232 2.304,-0.215 4.604,-0.449 6.901,-0.703 0.718,-0.079 1.444,0.004 2.125,0.242 0.682,0.238 1.301,0.625 1.813,1.134 0.513,0.508 0.905,1.125 1.148,1.805 0.243,0.679 0.331,1.405 0.257,2.123 l -0.716,6.961999 c -1.443,14.068 -2.887,28.136 -4.33,42.202 -1.505,14.772 -3.021,29.542 -4.546,44.312 -0.43,4.16 -0.86,8.318 -1.29,12.476 -0.413,4.094 -0.471,8.317 -1.249,12.362 -1.226,6.363 -5.533,10.269 -11.817,11.699 -5.758,1.31 -11.639996,1.998 -17.543996,2.052 -6.546,0.035 -13.089,-0.255 -19.635,-0.22 -6.988,0.039 -15.547,-0.606 -20.941,-5.807 -4.74,-4.568 -5.395,-11.721 -6.04,-17.905 -0.86,-8.189 -1.713,-16.376 -2.558,-24.562 l -4.743,-45.518 -3.068,-29.452 c -0.051,-0.487 -0.103,-0.968 -0.151,-1.458 -0.368,-3.513999 -2.8556,-6.952999 -6.7755,-6.774999 -3.3552,0.148 -7.1686,3 -6.775,6.774999 l 2.2745,21.835 4.7038,45.166 c 1.3399,12.83 2.6766,25.662 4.0101,38.496 0.2581,2.458 0.5001,4.923 0.7711,7.381 1.474,13.434 11.734,20.674 24.439,22.713 7.42,1.193 15.021,1.439 22.551,1.561 9.653,0.155 19.402,0.526 28.896996,-1.223 14.069,-2.581 24.625,-11.975 26.132,-26.548 0.43,-4.207 0.86,-8.415 1.291,-12.624 1.43,-13.92 2.858,-27.841 4.284,-41.763 l 4.665,-45.49 2.139,-20.847999 c 0.107,-1.034 0.543,-2.005 1.245,-2.772 0.702,-0.766 1.632,-1.286 2.652,-1.483 4.023,-0.784 7.869,-2.123 10.731,-5.185 4.555,-4.874 5.462,-11.23 3.852,-17.6373 z m -151.338396,4.4973 c 0.0613,-0.029 -0.0516,0.4968 -0.1,0.742 -0.0096,-0.371 0.0097,-0.7001 0.1,-0.742 z m 0.3904,3.02 c 0.0323,-0.023 0.1291,0.106 0.2291,0.261 -0.1517,-0.142 -0.2484,-0.248 -0.2323,-0.261 z m 0.3839,0.506 c 0.1388,0.236 0.213,0.384 0,0 z m 0.7711,0.626 h 0.0193 c 0,0.023 0.0355,0.045 0.0484,0.068 -0.0214,-0.025 -0.0451,-0.048 -0.0709,-0.068 z m 135.022996,-0.935 c -1.445,1.374 -3.623,2.013 -5.775,2.332 -24.132,3.581 -48.614996,5.394 -73.011996,4.594 -17.46,-0.597 -34.737,-2.536 -52.0226,-4.978 -1.6937,-0.239 -3.5295,-0.548 -4.6941,-1.797 -2.1938,-2.355 -1.1163,-7.0975 -0.5452,-9.943 0.5226,-2.6068 1.5227,-6.0814 4.6231,-6.4524 4.8393,-0.5678 10.4594,1.4744 15.2468,2.2002 5.764,0.8797 11.55,1.5841 17.357,2.1132 24.784,2.2584 49.983996,1.9067 74.657996,-1.3969 4.497,-0.6044 8.978,-1.3066 13.444,-2.1067 3.977,-0.713 8.388,-2.0519 10.791,2.068 1.649,2.8068 1.868,6.5621 1.613,9.7334 -0.078,1.3818 -0.682,2.6812 -1.687,3.6332 z" />
</svg>
